<?xml version="1.0" encoding="UTF-8" standalone="no"?>
<!-- Created with Inkscape (http://www.inkscape.org/) -->

<svg
   xmlns:dc="http://purl.org/dc/elements/1.1/"
   xmlns:cc="http://creativecommons.org/ns#"
   xmlns:rdf="http://www.w3.org/1999/02/22-rdf-syntax-ns#"
   xmlns:svg="http://www.w3.org/2000/svg"
   xmlns="http://www.w3.org/2000/svg"
   xmlns:sodipodi="http://sodipodi.sourceforge.net/DTD/sodipodi-0.dtd"
   xmlns:inkscape="http://www.inkscape.org/namespaces/inkscape"
   width="258.16223mm"
   height="287.79568mm"
   viewBox="0 0 914.74804 1019.7485"
   id="svg2"
   version="1.1"
   inkscape:version="0.91 r13725"
   sodipodi:docname="nespresso.svg">
  <defs
     id="defs4" />
  <sodipodi:namedview
     id="base"
     pagecolor="#ffffff"
     bordercolor="#666666"
     borderopacity="1.0"
     inkscape:pageopacity="0.0"
     inkscape:pageshadow="2"
     inkscape:zoom="0.41053452"
     inkscape:cx="535.7768"
     inkscape:cy="386.20098"
     inkscape:document-units="mm"
     inkscape:current-layer="layer1"
     showgrid="false"
     fit-margin-top="0"
     fit-margin-left="0"
     fit-margin-right="0"
     fit-margin-bottom="0"
     inkscape:window-width="1238"
     inkscape:window-height="756"
     inkscape:window-x="0"
     inkscape:window-y="0"
     inkscape:window-maximized="1"
     width="300mm" />
  <metadata
     id="metadata7">
    <rdf:RDF>
      <cc:Work
         rdf:about="">
        <dc:format>image/svg+xml</dc:format>
        <dc:type
           rdf:resource="http://purl.org/dc/dcmitype/StillImage" />
        <dc:title></dc:title>
      </cc:Work>
    </rdf:RDF>
  </metadata>
  <g
     transform="translate(-27.224865,524.7258)"
     id="g4166"
     inkscape:groupmode="layer"
     inkscape:label="Plans">
    <path
       style="color:#000000;clip-rule:nonzero;display:inline;overflow:visible;visibility:visible;opacity:1;isolation:auto;mix-blend-mode:normal;color-interpolation:sRGB;color-interpolation-filters:linearRGB;solid-color:#000000;solid-opacity:1;fill:none;fill-opacity:1;fill-rule:nonzero;stroke:#ff0000;stroke-width:0.35607252;stroke-linecap:butt;stroke-linejoin:miter;stroke-miterlimit:4;stroke-dasharray:none;stroke-dashoffset:0;stroke-opacity:1;color-rendering:auto;image-rendering:auto;shape-rendering:auto;text-rendering:auto;enable-background:accumulate"
       d="m 125.9733,494.8447 0,-10.27539 -88.296899,0 0,-31.88867 -10.2735,0 0,-46.28125 10.2754,0 0,-86.35938 -10.2754,0 0,-48.42383 10.2754,0 0,-31.88867 14.3164,0 0,-10.27539 32.5,0 0,10.27539 13.42,0 0,44.64648 c 0,23.41355 13.838699,43.4315 36.538999,47.83443 l 36.541,0 36.5411,0 10.1718,0 0,10.3457 88.2265,0 0,-10.3457 84.3028,0 2.6423,0 -0.093,162.63628 -88.9375,0 0,-10.27539 -88.2266,0 0,10.27539 z"
       id="path4174"
       inkscape:connector-curvature="0"
       sodipodi:nodetypes="cccccccccccccccccsscccccccccccccc" />
    <path
       style="color:#000000;clip-rule:nonzero;display:inline;overflow:visible;visibility:visible;opacity:1;isolation:auto;mix-blend-mode:normal;color-interpolation:sRGB;color-interpolation-filters:linearRGB;solid-color:#000000;solid-opacity:1;fill:none;fill-opacity:1;fill-rule:nonzero;stroke:#ff0000;stroke-width:0.35547039;stroke-linecap:butt;stroke-linejoin:miter;stroke-miterlimit:4;stroke-dasharray:none;stroke-dashoffset:0;stroke-opacity:1;color-rendering:auto;image-rendering:auto;shape-rendering:auto;text-rendering:auto;enable-background:accumulate"
       d="m 509.6118,-137.67876 0,10.27539 -10.60938,0 0,31.88867 10.51563,0 0,46.28125 -10.51563,0 0,86.35938 10.51563,0 0,48.42382 -10.51563,0 0,31.88868 10.51758,0 0,0.0351 0.16797,0 0,10.24024 43.16015,0 0,-10.24024 46.14844,0 0,10.24024 43.16016,0 0,-10.24024 0.10547,0 0,-0.0351 0.24804,0 10.26954,0 0.24804,0 0,0.0351 0.16797,0 0,10.24024 43.16016,0 0,-10.24024 46.14844,0 0,10.24024 43.16015,0 0,-10.24024 0.10547,0 0,-0.0351 0.24805,0 10.26953,0 0.24804,0 0,0.0351 0.16797,0 0,10.24024 43.16211,0 0,-10.24024 46.14649,0 0,10.24024 43.16015,0 0,-10.24024 0.10547,0 0,-0.0351 10.51758,0 0,-31.88868 -10.51562,0 0,-48.42382 10.51562,0 0,-86.35938 -10.51562,0 0,-46.28125 10.51562,0 0,-31.88867 -10.80078,0 0,-10.27539 -43.16016,0 0,10.27539 -46.04687,0 0,-10.27539 -43.1582,0 0,10.27539 -0.3418,0 -10.26953,0 -0.53125,0 0,-10.27539 -43.16016,0 0,10.27539 -46.04687,0 0,-10.27539 -43.16016,0 0,10.27539 -0.33984,0 -10.26954,0 -0.53125,0 0,-10.27539 -43.16015,0 0,10.27539 -46.04883,0 0,-10.27539 -43.1582,0 z m 132.65234,42.16406 0.24609,0 10.26954,0 0.24609,0 0,46.28125 -0.24609,0 -10.26954,0 -0.24609,0 0,-46.28125 z m 143.50781,0 0.2461,0 10.26953,0 0.24609,0 0,46.28125 -0.24609,0 -10.26953,0 -0.2461,0 0,-46.28125 z m -143.50781,132.64063 0.24609,0 10.26954,0 0.24609,0 0,48.42382 -0.24609,0 -10.26954,0 -0.24609,0 0,-48.42382 z m 143.50781,0 0.2461,0 10.26953,0 0.24609,0 0,48.42382 -0.24609,0 -10.26953,0 -0.2461,0 0,-48.42382 z"
       id="rect4170"
       inkscape:connector-curvature="0" />
    <path
       style="color:#000000;clip-rule:nonzero;display:inline;overflow:visible;visibility:visible;opacity:1;isolation:auto;mix-blend-mode:normal;color-interpolation:sRGB;color-interpolation-filters:linearRGB;solid-color:#000000;solid-opacity:1;fill:none;fill-opacity:1;fill-rule:nonzero;stroke:#ff0000;stroke-width:0.35503003;stroke-linecap:butt;stroke-linejoin:miter;stroke-miterlimit:4;stroke-dasharray:none;stroke-dashoffset:0;stroke-opacity:1;color-rendering:auto;image-rendering:auto;shape-rendering:auto;text-rendering:auto;enable-background:accumulate"
       d="m 511.51805,-517.21196 0,88.9375 -10.51563,0 0,88.22656 10.51563,0 0,89.64844 -10.51563,0 0,98.57031 10.60938,0 0,-10.27539 43.1582,0 0,10.27539 46.04688,0 0,-10.27539 43.1621,0 0,10.27539 0.53125,0 10.26954,0 0.33984,0 0,-10.27539 43.1582,0 0,10.27539 46.04883,0 0,-10.27539 43.16016,0 0,10.27539 0.53125,0 10.26953,0 0.33984,0 0,-10.27539 43.16016,0 0,10.27539 46.04687,0 0,-10.27539 43.16016,0 0,10.27539 10.80078,0 0,-98.57031 -10.51562,0 0,-89.64844 10.51562,0 0,-88.22656 -10.51562,0 0,-88.9375 -132.7461,0 0,88.9375 -0.24609,0 -10.26953,0 -0.2461,0 0,-88.9375 -132.74609,0 0,88.9375 -0.24609,0 -10.26954,0 -0.24609,0 0,-88.9375 -132.74609,0 z m 132.74609,177.16406 0.24609,0 10.26954,0 0.24609,0 0,89.64844 -0.24609,0 -10.26954,0 -0.24609,0 0,-89.64844 z m 143.50781,0 0.2461,0 10.26953,0 0.24609,0 0,89.64844 -0.24609,0 -10.26953,0 -0.2461,0 0,-89.64844 z"
       id="rect4172"
       inkscape:connector-curvature="0" />
    <path
       style="color:#000000;clip-rule:nonzero;display:inline;overflow:visible;visibility:visible;opacity:1;isolation:auto;mix-blend-mode:normal;color-interpolation:sRGB;color-interpolation-filters:linearRGB;solid-color:#000000;solid-opacity:1;fill:none;fill-opacity:1;fill-rule:nonzero;stroke:#ff0000;stroke-width:0.35433072;stroke-linecap:butt;stroke-linejoin:miter;stroke-miterlimit:4;stroke-dasharray:none;stroke-dashoffset:0;stroke-opacity:1;color-rendering:auto;image-rendering:auto;shape-rendering:auto;text-rendering:auto;enable-background:accumulate"
       d="m 473.71732,-66.1962 0,-24.59179 -10.51758,0 0,-32.5 10.51758,0 0,-13.41992 -19.22266,0 c 0,0 -26.06556,-7.90679 -38.44336,-13.43555 -6.69251,-2.98932 -11.86383,-10.60742 -19.22265,-10.60742 -7.35882,0 -12.53015,7.6181 -19.22266,10.60742 -12.37779,5.52876 -38.44531,13.43555 -38.44531,13.43555 l -8.95117,0 -10.27149,0 -8.95117,0 c 0,0 -26.06556,-7.90679 -38.44336,-13.43555 -6.69251,-2.98932 -11.86384,-10.60742 -19.22266,-10.60742 -7.35882,0 -12.53014,7.6181 -19.22265,10.60742 -12.37779,5.52876 -38.44531,13.43555 -38.44532,13.43555 l -8.95117,0 -10.27148,0 -8.95117,0 c 0,0 -26.06556,-7.90679 -38.44336,-13.43555 -6.69251,-2.98932 -11.86384,-10.60742 -19.22266,-10.60742 -7.35882,0 -12.53015,7.6181 -19.22266,10.60742 -12.37779,5.52876 -38.44531,13.43555 -38.44531,13.43555 l -19.22265,0 0,13.41992 10.51757,0 0,32.5 -10.51757,0 0,24.59179 10.625,0 0,-10.24023 43.16015,0 0,10.24023 46.14844,0 0,-10.27539 43.16016,0 0,10.27539 0.41406,0 10.27148,0 0.35352,0 0,-10.24023 43.16015,0 0,10.24023 46.14844,0 0,-10.27539 43.16016,0 0,10.27539 0.41406,0 10.27149,0 0.35351,0 0,-10.24023 43.16211,0 0,10.24023 46.14649,0 0,-10.27539 43.16015,0 0,10.27539 10.68555,0 z m -143.26172,-24.59179 -0.24609,0 -10.27149,0 -0.24609,0 0,-32.5 0.24609,0 10.27149,0 0.24609,0 0,32.5 z m -143.50781,0 -0.2461,0 -10.27148,0 -0.24609,0 0,-32.5 0.24609,0 10.27148,0 0.2461,0 0,32.5 z"
       id="path4243"
       inkscape:connector-curvature="0" />
    <g
       id="g4522"
       transform="translate(-505.10704,-100.08014)">
      <path
         id="rect4178"
         transform="translate(7.5200013,-545.34087)"
         d="m 549.5332,597.49414 c -3.78212,0.0829 -7.46093,0.74609 -7.46093,0.74609 l 0,10.17188 -10.58985,0 0,88.22656 10.58985,0 0,84.30274 0,5.4707 132.59961,0 0,-5.4707 0,-84.30274 0.31835,0 10.27149,0 0.31836,0 0,84.30274 0,5.4707 132.59961,0 0,-5.4707 0,-84.30274 0.31836,0 10.27148,0 0.31836,0 0,84.30274 0,5.4707 132.59961,0 0,-5.4707 0,-84.30274 10.58984,0 0,-88.22656 -10.58984,0 0,-10.17188 c 0,0 -8.40589,-1.49313 -12.16016,0 -23.35522,9.2887 -28.92291,51.78603 -54.13867,51.61915 -24.87272,-0.16464 -29.71993,-42.30455 -52.69336,-51.61915 -4.18949,-1.69864 -13.60742,0 -13.60742,0 l 0,10.17188 -0.31836,0 -10.27148,0 -0.31836,0 0,-10.17188 c 0,0 -8.40589,-1.49313 -12.16016,0 -23.35522,9.2887 -28.92291,51.78602 -54.13867,51.61915 -24.87272,-0.16464 -29.71993,-42.30455 -52.69336,-51.61915 -4.18949,-1.69864 -13.60742,0 -13.60742,0 l 0,10.17188 -0.31836,0 -10.27149,0 -0.31835,0 0,-10.17188 c 0,0 -8.40589,-1.49313 -12.16016,0 -23.35522,9.2887 -28.92487,51.78602 -54.14063,51.61915 -24.87272,-0.16464 -29.71797,-42.30455 -52.6914,-51.61915 -1.57106,-0.63699 -3.87722,-0.79585 -6.14649,-0.74609 z"
         style="color:#000000;clip-rule:nonzero;display:inline;overflow:visible;visibility:visible;opacity:1;isolation:auto;mix-blend-mode:normal;color-interpolation:sRGB;color-interpolation-filters:linearRGB;solid-color:#000000;solid-opacity:1;fill:none;fill-opacity:1;fill-rule:nonzero;stroke:#ff0000;stroke-width:0.35433072;stroke-linecap:butt;stroke-linejoin:miter;stroke-miterlimit:4;stroke-dasharray:none;stroke-dashoffset:0;stroke-opacity:1;color-rendering:auto;image-rendering:auto;shape-rendering:auto;text-rendering:auto;enable-background:accumulate"
         inkscape:connector-curvature="0" />
      <g
         style="stroke:#0000ff;stroke-width:1.73477626;stroke-miterlimit:4;stroke-dasharray:none;stroke-opacity:1"
         id="g3"
         transform="matrix(-0.19960474,-0.05225162,0.05348393,-0.19500571,660.04591,244.63761)">
        <g
           style="stroke:#0000ff;stroke-width:1.73477626;stroke-miterlimit:4;stroke-dasharray:none;stroke-opacity:1"
           id="Layer_1_37_">
          <g
             style="stroke:#0000ff;stroke-width:1.73477626;stroke-miterlimit:4;stroke-dasharray:none;stroke-opacity:1"
             id="g6">
            <path
               style="stroke:#0000ff;stroke-width:1.73477626;stroke-miterlimit:4;stroke-dasharray:none;stroke-opacity:1"
               id="path8"
               d="m 217.575,231.15 c 30.6,-49.725 73.95,-87.975 122.399,-108.375 C 297.9,42.45 221.4,-4.725 148.725,0.375 c 33.15,36.975 61.2,100.725 66.3,206.55 1.275,8.925 2.55,16.575 2.55,24.225 z"
               inkscape:connector-curvature="0" />
            <path
               style="stroke:#0000ff;stroke-width:1.73477626;stroke-miterlimit:4;stroke-dasharray:none;stroke-opacity:1"
               id="path10"
               d="M 152.55,210.75 C 147.45,93.45 110.475,45 81.15,24.6 9.75,71.775 -17.025,180.15 19.95,282.15 c 29.325,79.05 89.25,133.874 153,151.725 -3.825,-30.601 -3.825,-62.476 2.55,-94.351 C 164.025,302.55 155.1,260.475 152.55,210.75 Z"
               inkscape:connector-curvature="0" />
            <path
               style="stroke:#0000ff;stroke-width:1.73477626;stroke-miterlimit:4;stroke-dasharray:none;stroke-opacity:1"
               id="path12"
               d="m 501.9,168.675 c -29.325,20.4 -66.301,68.85 -71.4,184.875 -5.1,105.825 -36.975,178.5 -77.775,228.225 5.101,0 10.2,1.275 15.301,1.275 79.05,0 159.375,-62.475 195.074,-156.825 36.975,-103.275 10.2,-210.375 -61.2,-257.55 z"
               inkscape:connector-curvature="0" />
            <path
               style="stroke:#0000ff;stroke-width:1.73477626;stroke-miterlimit:4;stroke-dasharray:none;stroke-opacity:1"
               id="path14"
               d="m 433.05,145.725 c -3.825,0 -7.649,0 -12.75,0 -79.05,0 -159.375,61.2 -195.075,156.825 -38.25,103.275 -10.2,210.375 61.2,257.55 39.525,-40.8 75.226,-104.55 79.05,-207.825 6.375,-107.1 34.425,-169.575 67.575,-206.55 z"
               inkscape:connector-curvature="0" />
          </g>
        </g>
      </g>
      <g
         transform="matrix(-0.19960474,-0.05225162,0.05348393,-0.19500571,803.55398,244.63761)"
         id="g4382"
         style="stroke:#0000ff;stroke-width:1.73477626;stroke-miterlimit:4;stroke-dasharray:none;stroke-opacity:1">
        <g
           id="g4384"
           style="stroke:#0000ff;stroke-width:1.73477626;stroke-miterlimit:4;stroke-dasharray:none;stroke-opacity:1">
          <g
             id="g4386"
             style="stroke:#0000ff;stroke-width:1.73477626;stroke-miterlimit:4;stroke-dasharray:none;stroke-opacity:1">
            <path
               inkscape:connector-curvature="0"
               d="m 217.575,231.15 c 30.6,-49.725 73.95,-87.975 122.399,-108.375 C 297.9,42.45 221.4,-4.725 148.725,0.375 c 33.15,36.975 61.2,100.725 66.3,206.55 1.275,8.925 2.55,16.575 2.55,24.225 z"
               id="path4388"
               style="stroke:#0000ff;stroke-width:1.73477626;stroke-miterlimit:4;stroke-dasharray:none;stroke-opacity:1" />
            <path
               inkscape:connector-curvature="0"
               d="M 152.55,210.75 C 147.45,93.45 110.475,45 81.15,24.6 9.75,71.775 -17.025,180.15 19.95,282.15 c 29.325,79.05 89.25,133.874 153,151.725 -3.825,-30.601 -3.825,-62.476 2.55,-94.351 C 164.025,302.55 155.1,260.475 152.55,210.75 Z"
               id="path4390"
               style="stroke:#0000ff;stroke-width:1.73477626;stroke-miterlimit:4;stroke-dasharray:none;stroke-opacity:1" />
            <path
               inkscape:connector-curvature="0"
               d="m 501.9,168.675 c -29.325,20.4 -66.301,68.85 -71.4,184.875 -5.1,105.825 -36.975,178.5 -77.775,228.225 5.101,0 10.2,1.275 15.301,1.275 79.05,0 159.375,-62.475 195.074,-156.825 36.975,-103.275 10.2,-210.375 -61.2,-257.55 z"
               id="path4392"
               style="stroke:#0000ff;stroke-width:1.73477626;stroke-miterlimit:4;stroke-dasharray:none;stroke-opacity:1" />
            <path
               inkscape:connector-curvature="0"
               d="m 433.05,145.725 c -3.825,0 -7.649,0 -12.75,0 -79.05,0 -159.375,61.2 -195.075,156.825 -38.25,103.275 -10.2,210.375 61.2,257.55 39.525,-40.8 75.226,-104.55 79.05,-207.825 6.375,-107.1 34.425,-169.575 67.575,-206.55 z"
               id="path4394"
               style="stroke:#0000ff;stroke-width:1.73477626;stroke-miterlimit:4;stroke-dasharray:none;stroke-opacity:1" />
          </g>
        </g>
      </g>
      <g
         transform="matrix(-0.19960474,-0.05225162,0.05348393,-0.19500571,947.06203,244.63761)"
         id="g4438"
         style="stroke:#0000ff;stroke-width:1.73477626;stroke-miterlimit:4;stroke-dasharray:none;stroke-opacity:1">
        <g
           id="g4440"
           style="stroke:#0000ff;stroke-width:1.73477626;stroke-miterlimit:4;stroke-dasharray:none;stroke-opacity:1">
          <g
             id="g4442"
             style="stroke:#0000ff;stroke-width:1.73477626;stroke-miterlimit:4;stroke-dasharray:none;stroke-opacity:1">
            <path
               inkscape:connector-curvature="0"
               d="m 217.575,231.15 c 30.6,-49.725 73.95,-87.975 122.399,-108.375 C 297.9,42.45 221.4,-4.725 148.725,0.375 c 33.15,36.975 61.2,100.725 66.3,206.55 1.275,8.925 2.55,16.575 2.55,24.225 z"
               id="path4444"
               style="stroke:#0000ff;stroke-width:1.73477626;stroke-miterlimit:4;stroke-dasharray:none;stroke-opacity:1" />
            <path
               inkscape:connector-curvature="0"
               d="M 152.55,210.75 C 147.45,93.45 110.475,45 81.15,24.6 9.75,71.775 -17.025,180.15 19.95,282.15 c 29.325,79.05 89.25,133.874 153,151.725 -3.825,-30.601 -3.825,-62.476 2.55,-94.351 C 164.025,302.55 155.1,260.475 152.55,210.75 Z"
               id="path4446"
               style="stroke:#0000ff;stroke-width:1.73477626;stroke-miterlimit:4;stroke-dasharray:none;stroke-opacity:1" />
            <path
               inkscape:connector-curvature="0"
               d="m 501.9,168.675 c -29.325,20.4 -66.301,68.85 -71.4,184.875 -5.1,105.825 -36.975,178.5 -77.775,228.225 5.101,0 10.2,1.275 15.301,1.275 79.05,0 159.375,-62.475 195.074,-156.825 36.975,-103.275 10.2,-210.375 -61.2,-257.55 z"
               id="path4448"
               style="stroke:#0000ff;stroke-width:1.73477626;stroke-miterlimit:4;stroke-dasharray:none;stroke-opacity:1" />
            <path
               inkscape:connector-curvature="0"
               d="m 433.05,145.725 c -3.825,0 -7.649,0 -12.75,0 -79.05,0 -159.375,61.2 -195.075,156.825 -38.25,103.275 -10.2,210.375 61.2,257.55 39.525,-40.8 75.226,-104.55 79.05,-207.825 6.375,-107.1 34.425,-169.575 67.575,-206.55 z"
               id="path4450"
               style="stroke:#0000ff;stroke-width:1.73477626;stroke-miterlimit:4;stroke-dasharray:none;stroke-opacity:1" />
          </g>
        </g>
      </g>
    </g>
    <path
       sodipodi:nodetypes="cccccccccccccccccsscccccccccccccc"
       inkscape:connector-curvature="0"
       id="path4546"
       d="m 390.3089,147.45224 0,10.27539 88.2969,0 0,31.88867 10.2735,0 0,46.28125 -10.2754,0 0,86.35938 10.2754,0 0,48.42383 -10.2754,0 0,31.88867 -14.3164,0 0,10.27539 -32.5,0 0,-10.27539 -13.42,0 0,-44.64648 c 0,-23.41355 -13.8387,-43.4315 -36.539,-47.83443 l -36.541,0 -36.5411,0 -10.1718,0 0,-10.3457 -88.2265,0 0,10.3457 -84.3028,0 -2.6423,0 0.093,-162.63628 88.9375,0 0,10.27539 88.2266,0 0,-10.27539 z"
       style="color:#000000;clip-rule:nonzero;display:inline;overflow:visible;visibility:visible;opacity:1;isolation:auto;mix-blend-mode:normal;color-interpolation:sRGB;color-interpolation-filters:linearRGB;solid-color:#000000;solid-opacity:1;fill:none;fill-opacity:1;fill-rule:nonzero;stroke:#ff0000;stroke-width:0.35607252;stroke-linecap:butt;stroke-linejoin:miter;stroke-miterlimit:4;stroke-dasharray:none;stroke-dashoffset:0;stroke-opacity:1;color-rendering:auto;image-rendering:auto;shape-rendering:auto;text-rendering:auto;enable-background:accumulate" />
    <path
       sodipodi:nodetypes="cccccccccccccccccsscccccccccccccc"
       inkscape:connector-curvature="0"
       id="path4548"
       d="m 125.9733,-524.54776 0,10.27539 -88.296899,0 0,31.88867 -10.2735,0 0,46.28125 10.2754,0 0,86.35938 -10.2754,0 0,48.42383 10.2754,0 0,31.88867 14.3164,0 0,10.27539 32.5,0 0,-10.27539 13.42,0 0,-44.64648 c 0,-23.41355 13.838699,-43.4315 36.538999,-47.83443 l 36.541,0 36.5411,0 10.1718,0 0,-10.3457 88.2265,0 0,10.3457 84.3028,0 2.6423,0 -0.093,-162.63628 -88.9375,0 0,10.27539 -88.2266,0 0,-10.27539 z"
       style="color:#000000;clip-rule:nonzero;display:inline;overflow:visible;visibility:visible;opacity:1;isolation:auto;mix-blend-mode:normal;color-interpolation:sRGB;color-interpolation-filters:linearRGB;solid-color:#000000;solid-opacity:1;fill:none;fill-opacity:1;fill-rule:nonzero;stroke:#ff0000;stroke-width:0.35607252;stroke-linecap:butt;stroke-linejoin:miter;stroke-miterlimit:4;stroke-dasharray:none;stroke-dashoffset:0;stroke-opacity:1;color-rendering:auto;image-rendering:auto;shape-rendering:auto;text-rendering:auto;enable-background:accumulate" />
    <path
       style="color:#000000;clip-rule:nonzero;display:inline;overflow:visible;visibility:visible;opacity:1;isolation:auto;mix-blend-mode:normal;color-interpolation:sRGB;color-interpolation-filters:linearRGB;solid-color:#000000;solid-opacity:1;fill:none;fill-opacity:1;fill-rule:nonzero;stroke:#ff0000;stroke-width:0.35607252;stroke-linecap:butt;stroke-linejoin:miter;stroke-miterlimit:4;stroke-dasharray:none;stroke-dashoffset:0;stroke-opacity:1;color-rendering:auto;image-rendering:auto;shape-rendering:auto;text-rendering:auto;enable-background:accumulate"
       d="m 390.3089,-177.1553 0,-10.27539 88.2969,0 0,-31.88867 10.2735,0 0,-46.28125 -10.2754,0 0,-86.35938 10.2754,0 0,-48.42383 -10.2754,0 0,-31.88867 -14.3164,0 0,-10.27539 -32.5,0 0,10.27539 -13.42,0 0,44.64648 c 0,23.41355 -13.8387,43.4315 -36.539,47.83443 l -36.541,0 -36.5411,0 -10.1718,0 0,10.3457 -88.2265,0 0,-10.3457 -84.3028,0 -2.6423,0 0.093,162.63628 88.9375,0 0,-10.27539 88.2266,0 0,10.27539 z"
       id="path4550"
       inkscape:connector-curvature="0"
       sodipodi:nodetypes="cccccccccccccccccsscccccccccccccc" />
  </g>
  <g
     inkscape:groupmode="layer"
     id="layer1"
     inkscape:label="Descript"
     transform="translate(-19.704863,-20.615074)">
    <text
       xml:space="preserve"
       style="font-style:normal;font-weight:normal;font-size:40px;line-height:125%;font-family:sans-serif;letter-spacing:0px;word-spacing:0px;fill:#000000;fill-opacity:1;stroke:none;stroke-width:1px;stroke-linecap:butt;stroke-linejoin:miter;stroke-opacity:1"
       x="521.84479"
       y="757.52203"
       id="text4173"
       sodipodi:linespacing="125%"><tspan
         sodipodi:role="line"
         id="tspan4175"
         x="521.84479"
         y="757.52203"
         style="font-size:27.5px">Nespresso capsule dispenser</tspan><tspan
         sodipodi:role="line"
         x="521.84479"
         y="791.89703"
         id="tspan4177"
         style="font-size:27.5px">Material: 3 mm MDF</tspan></text>
  </g>
</svg>
